<?xml version="1.0" standalone="no"?>
<!DOCTYPE svg PUBLIC "-//W3C//DTD SVG 20010904//EN"
 "http://www.w3.org/TR/2001/REC-SVG-20010904/DTD/svg10.dtd">
<svg version="1.0" xmlns="http://www.w3.org/2000/svg"
 width="567.000000pt" height="567.000000pt" viewBox="0 0 567.000000 567.000000"
 preserveAspectRatio="xMidYMid meet">
<metadata>
Created by potrace 1.11, written by Peter Selinger 2001-2013
</metadata>
<g transform="translate(0.000000,567.000000) scale(0.100000,-0.100000)"
fill="#000000" stroke="none">
<path d="M4546 5490 c-280 -88 -510 -161 -512 -163 -2 -2 96 -46 219 -97 122
-52 398 -170 612 -263 215 -93 404 -171 422 -174 36 -6 73 23 73 57 0 12 -52
188 -116 393 -116 374 -130 408 -173 406 -9 0 -245 -72 -525 -159z"/>
<path d="M2790 4944 c-201 -63 -369 -116 -375 -118 -5 -2 -1 -7 10 -11 61 -24
1176 -500 1206 -516 l37 -18 273 85 c151 47 332 103 404 126 l129 40 -43 15
c-23 8 -309 125 -634 260 -326 135 -603 247 -617 249 -14 1 -189 -49 -390
-112z"/>
<path d="M1201 4449 c-212 -66 -386 -121 -388 -123 -2 -2 11 -9 29 -16 98 -39
1132 -481 1168 -500 28 -15 54 -20 74 -17 17 3 201 58 409 123 l378 118 -38
14 c-94 36 -1182 486 -1213 502 l-35 18 -384 -119z"/>
<path d="M90 4088 c-11 -12 -20 -27 -20 -32 0 -6 45 -152 99 -325 l98 -314 76
-30 c74 -29 77 -31 77 -63 0 -18 -5 -36 -11 -40 -8 -5 -8 -9 1 -14 21 -13 1
-30 -35 -30 -65 0 -65 3 -65 -446 l0 -403 26 -20 c15 -12 35 -21 46 -21 10 0
95 65 187 145 l169 145 437 0 436 0 -123 -103 c-68 -57 -147 -122 -176 -145
l-54 -42 -354 0 -355 0 3 -882 4 -883 22 -75 c42 -135 89 -217 177 -305 91
-92 162 -132 295 -168 l85 -22 1810 0 c1730 0 1813 1 1880 19 117 31 209 80
288 156 80 76 128 148 164 248 53 144 53 149 53 1063 l0 849 28 0 c19 0 53 22
118 78 50 42 101 85 113 95 22 17 22 19 19 352 -3 321 -4 335 -23 349 -11 9
-29 15 -40 15 -20 -1 -18 -2 24 -15 11 -3 8 -11 -10 -30 -24 -26 -910 -765
-980 -817 l-36 -27 -383 0 c-365 0 -382 1 -367 18 9 9 241 208 516 442 l500
425 -400 3 -399 2 -348 -288 c-191 -159 -432 -359 -536 -446 l-189 -156 -414
0 c-230 0 -413 4 -413 9 0 5 9 15 19 22 10 8 227 192 482 409 255 217 479 408
497 423 l34 27 -411 0 c-277 0 -412 -3 -416 -11 -7 -11 -602 -509 -608 -509
-2 0 0 17 6 38 5 21 7 55 3 76 -8 42 -43 80 -234 258 l-102 95 45 35 45 36
-131 126 c-73 69 -130 128 -128 130 2 2 31 12 64 23 l60 20 -40 13 c-113 37
-573 234 -595 254 -36 33 -63 46 -107 48 -34 1 -369 131 -468 181 l-39 19 23
19 c13 11 18 19 12 19 -5 0 -19 -10 -31 -22z m567 -247 c35 -22 84 -67 533
-495 517 -492 517 -491 491 -576 -14 -46 -69 -97 -113 -105 -18 -3 -259 -5
-535 -3 -489 3 -502 4 -530 24 -15 11 -37 38 -48 60 -18 37 -19 66 -23 519 -3
448 -2 482 15 515 39 75 139 104 210 61z m4353 -2111 l0 -40 -2070 0 -2070 0
0 40 0 40 2070 0 2070 0 0 -40z m0 -570 l0 -40 -2070 0 -2070 0 0 40 0 40
2070 0 2070 0 0 -40z m0 -570 l0 -40 -680 0 -680 0 0 -186 0 -185 -37 3 -38 3
-3 183 -2 182 -645 0 -645 0 0 -185 0 -185 -40 0 -40 0 0 185 0 185 -665 0
-665 0 0 40 0 40 2070 0 2070 0 0 -40z"/>
<path d="M530 3788 c-88 -60 -50 -188 57 -188 36 0 50 6 74 29 87 87 -29 228
-131 159z m118 -34 c46 -51 10 -134 -58 -134 -43 0 -65 14 -80 50 -17 41 2 88
44 106 38 16 64 10 94 -22z"/>
<path d="M514 2906 c-47 -47 -47 -95 0 -142 70 -70 175 -26 176 74 0 61 -41
102 -100 102 -34 0 -48 -6 -76 -34z m130 -11 c36 -33 35 -78 -3 -116 -36 -35
-70 -37 -107 -5 -21 18 -28 32 -28 61 0 74 84 110 138 60z"/>
<path d="M1379 2911 c-23 -23 -29 -38 -29 -71 0 -52 13 -76 50 -95 71 -37 146
3 157 82 5 39 2 46 -30 78 -29 29 -42 35 -77 35 -33 0 -48 -6 -71 -29z m124
-11 c33 -26 41 -63 22 -101 -28 -53 -93 -62 -135 -17 -66 71 36 179 113 118z"/>
<path d="M301 3318 c-1 -27 35 -58 67 -57 27 2 27 2 2 6 -31 6 -50 21 -60 48
-7 17 -9 17 -9 3z"/>
<path d="M5591 2408 c-1 -9 -11 -24 -23 -32 -18 -13 -19 -16 -6 -16 19 0 42
35 34 53 -2 7 -5 5 -5 -5z"/>
</g>
</svg>
